<svg width="105" height="30" viewBox="0 0 105 30" fill="none" xmlns="http://www.w3.org/2000/svg">
<g id="Group 4">
<path id="Fill 1" fill-rule="evenodd" clip-rule="evenodd" d="M0 8.2778V8.35495L17.9683 16.6331L36 8.32678V8.30593L17.9683 0L0 8.2778ZM6.47786 8.31658L17.9687 3.02289L29.4606 8.31658L17.9683 13.6098L6.47786 8.31658ZM17.9683 19.8483L0 11.6941V14.7101L17.9683 22.8829L36 14.6823V11.666L17.9683 19.8483ZM17.9683 25.9651L0 17.8101V20.8261L17.9683 29L36 20.7983V17.7823L17.9683 25.9651Z" fill="white"/>
<path id="Fill 2" fill-rule="evenodd" clip-rule="evenodd" d="M100.972 14.9861C100.972 14.3028 100.85 13.6657 100.608 13.0748C100.365 12.4838 100.034 11.9668 99.6148 11.5235C99.1951 11.0803 98.7056 10.7341 98.1461 10.4848C97.5865 10.2355 96.9897 10.1108 96.3556 10.1108C95.7215 10.1108 95.1247 10.2355 94.5652 10.4848C94.0057 10.7341 93.5161 11.0803 93.0965 11.5235C92.6768 11.9668 92.3458 12.4838 92.1034 13.0748C91.8609 13.6657 91.7397 14.3028 91.7397 14.9861C91.7397 15.6694 91.8609 16.3066 92.1034 16.8975C92.3458 17.4885 92.6768 18.0056 93.0965 18.4487C93.5161 18.892 94.0057 19.2382 94.5652 19.4875C95.1247 19.7369 95.7215 19.8615 96.3556 19.8615C96.9897 19.8615 97.5865 19.7369 98.1461 19.4875C98.7056 19.2382 99.1951 18.892 99.6148 18.4487C100.034 18.0056 100.365 17.4885 100.608 16.8975C100.85 16.3066 100.972 15.6694 100.972 14.9861ZM105 14.9861C105 16.1865 104.776 17.2992 104.329 18.3241C103.881 19.349 103.266 20.2355 102.482 20.9834C101.699 21.7313 100.78 22.3222 99.7267 22.7562C98.6729 23.1902 97.5493 23.4072 96.3556 23.4072C95.162 23.4072 94.043 23.1902 92.9986 22.7562C91.9542 22.3222 91.0403 21.7267 90.257 20.9695C89.4737 20.2123 88.8582 19.3213 88.4106 18.2964C87.963 17.2715 87.7392 16.168 87.7392 14.9861C87.7392 13.8227 87.9677 12.7285 88.4246 11.7036C88.8815 10.6787 89.5016 9.78299 90.285 9.01661C91.0682 8.25021 91.9821 7.65006 93.0266 7.21606C94.0709 6.78209 95.1806 6.56509 96.3556 6.56509C97.5493 6.56509 98.6729 6.78209 99.7267 7.21606C100.78 7.65006 101.699 8.24098 102.482 8.98891C103.266 9.73684 103.881 10.6279 104.329 11.662C104.776 12.6962 105 13.8043 105 14.9861ZM86.3404 22.9086C86.0234 23.0563 85.6644 23.1764 85.2634 23.2687C84.8624 23.3611 84.4475 23.4072 84.0185 23.4072C83.4217 23.4072 82.8482 23.3287 82.298 23.1718C81.7478 23.0148 81.2676 22.7609 80.8573 22.41C80.447 22.0591 80.1206 21.602 79.8781 21.0388C79.6357 20.4755 79.5145 19.7969 79.5145 19.0028V0H83.6268V18.3103C83.6268 18.975 83.7621 19.4321 84.0325 19.6815C84.3029 19.9308 84.6246 20.0554 84.9976 20.0554C85.4639 20.0554 85.9115 19.9169 86.3404 19.6399V22.9086V22.9086ZM77.6961 6.95291L70.4224 25.9834C69.8816 27.4054 69.1729 28.4303 68.2963 29.0582C67.4198 29.6861 66.3754 30 65.1631 30C64.9766 30 64.7714 29.9862 64.5476 29.9585C64.3238 29.9307 64.1093 29.8892 63.9042 29.8338L62.5614 26.1219C62.8785 26.2697 63.2048 26.385 63.5405 26.4681C63.8762 26.5513 64.1933 26.5928 64.4917 26.5928C65.1258 26.5928 65.704 26.4497 66.2262 26.1634C66.7484 25.8772 67.1494 25.3463 67.4291 24.5707L67.9886 22.964L61.7501 6.95291H66.1423L69.863 17.2576L73.3599 6.95291H77.6961ZM60.771 4.54294H50.2522V9.69528H60.6311V13.1856H50.2522V22.9917H46V0.858706H60.771V4.54294Z" fill="white"/>
</g>
</svg>
